<?xml version="1.0" standalone="no"?>
<!DOCTYPE svg PUBLIC "-//W3C//DTD SVG 20010904//EN"
 "http://www.w3.org/TR/2001/REC-SVG-20010904/DTD/svg10.dtd">
<svg version="1.0" xmlns="http://www.w3.org/2000/svg"
 width="1024.000000pt" height="860.000000pt" viewBox="0 0 1024.000000 860.000000"
 preserveAspectRatio="xMidYMid meet">
<metadata>
Created by potrace 1.15, written by Peter Selinger 2001-2017
</metadata>
<g transform="translate(0.000000,860.000000) scale(0.100000,-0.100000)"
fill="#000000" stroke="none">
<path d="M4800 8445 c-283 -39 -478 -114 -720 -277 -69 -46 -818 -549 -1665
-1118 -1397 -938 -1548 -1042 -1626 -1119 -87 -87 -138 -162 -177 -261 -42
-108 -46 -140 -47 -330 0 -163 3 -194 23 -263 25 -89 64 -170 116 -241 l35
-50 -33 -45 c-113 -154 -153 -313 -143 -561 8 -192 46 -312 141 -444 l35 -50
-33 -45 c-113 -154 -153 -313 -143 -561 10 -246 85 -416 248 -564 85 -76 3329
-2256 3464 -2327 248 -131 547 -188 920 -176 296 9 536 63 740 164 107 54
3381 2250 3472 2330 114 99 196 229 235 372 29 105 32 402 5 501 -22 82 -77
199 -123 261 l-35 48 36 47 c51 66 93 153 117 243 29 105 32 402 5 501 -22 82
-77 199 -123 261 l-35 48 36 47 c51 66 93 153 117 243 18 63 21 106 22 256 1
211 -9 259 -81 405 -39 80 -60 109 -137 185 -84 84 -209 170 -1676 1155 -872
585 -1623 1089 -1670 1120 -200 134 -408 209 -675 245 -137 18 -492 18 -625 0z
m202 -1760 c193 -33 363 -113 483 -227 78 -73 114 -131 140 -222 31 -107 6
-229 -65 -318 -17 -20 -30 -41 -30 -47 0 -5 33 6 73 24 297 137 677 140 960 7
105 -49 195 -109 270 -181 231 -220 223 -477 -22 -734 -101 -105 -173 -158
-742 -540 l-486 -326 -1244 836 c-684 459 -1248 838 -1252 842 -7 7 919 637
1059 720 129 75 307 140 464 166 104 18 291 18 392 0z"/>
<path d="M4657 6390 c-81 -14 -187 -50 -260 -86 -84 -43 -719 -464 -715 -475
2 -5 180 -127 396 -272 l393 -265 292 197 c397 266 507 375 524 520 22 185
-219 372 -496 386 -47 2 -108 0 -134 -5z"/>
<path d="M5889 5729 c-124 -13 -273 -62 -409 -135 -85 -46 -730 -477 -727
-486 1 -4 197 -138 434 -298 l433 -290 352 237 c400 270 493 348 547 463 60
127 35 229 -83 337 -143 131 -340 193 -547 172z"/>
</g>
</svg>
