<?xml version="1.0" encoding="UTF-8" standalone="no"?>
<svg
   xmlns:dc="http://purl.org/dc/elements/1.1/"
   xmlns:cc="http://creativecommons.org/ns#"
   xmlns:rdf="http://www.w3.org/1999/02/22-rdf-syntax-ns#"
   xmlns:svg="http://www.w3.org/2000/svg"
   xmlns="http://www.w3.org/2000/svg"
   xmlns:sodipodi="http://sodipodi.sourceforge.net/DTD/sodipodi-0.dtd"
   xmlns:inkscape="http://www.inkscape.org/namespaces/inkscape"
   width="255.9996"
   height="115.785"
   viewBox="0 0 255.9996 115.785"
   version="1.1"
   preserveAspectRatio="xMidYMid"
   id="svg97"
   sodipodi:docname="cloudflare.svg"
   inkscape:version="0.92.3 (unknown)">
  <metadata
     id="metadata103">
    <rdf:RDF>
      <cc:Work
         rdf:about="">
        <dc:format>image/svg+xml</dc:format>
        <dc:type
           rdf:resource="http://purl.org/dc/dcmitype/StillImage" />
        <dc:title></dc:title>
      </cc:Work>
    </rdf:RDF>
  </metadata>
  <defs
     id="defs101" />
  <sodipodi:namedview
     pagecolor="#ffffff"
     bordercolor="#666666"
     borderopacity="1"
     objecttolerance="10"
     gridtolerance="10"
     guidetolerance="10"
     inkscape:pageopacity="0"
     inkscape:pageshadow="2"
     inkscape:window-width="1920"
     inkscape:window-height="1107"
     id="namedview99"
     showgrid="false"
     fit-margin-top="0"
     fit-margin-left="0"
     fit-margin-right="0"
     fit-margin-bottom="0"
     inkscape:zoom="6.9765625"
     inkscape:cx="128"
     inkscape:cy="57.7843"
     inkscape:window-x="0"
     inkscape:window-y="25"
     inkscape:window-maximized="1"
     inkscape:current-layer="svg97" />
  <g
     id="g95"
     transform="translate(0,7e-4)">
    <g
       transform="translate(0,-1)"
       id="g93">
      <path
         d="m 202.3569,50.394 -5.311,-2.124 c -24.961,56.164 -124.26,22.019 -130.235,38.727 -0.996,11.286 54.227,2.146 93.706,4.059 12.039,0.583 18.076,9.671 12.964,24.484 l 10.069,0.031 c 11.615,-36.209 48.683,-17.73 50.232,-29.68 -2.545,-7.857 -42.601,0 -31.425,-35.497 z"
         id="path87"
         inkscape:connector-curvature="0"
         style="fill:#ffffff" />
      <path
         d="m 176.332,109.3483 c 1.593,-5.311 1.062,-10.622 -1.593,-13.809 -2.656,-3.187 -6.374,-5.311 -11.154,-5.842 L 71.17,88.6343 c -0.531,0 -1.062,-0.531 -1.593,-0.531 -0.531,-0.531 -0.531,-1.062 0,-1.593 0.531,-1.062 1.062,-1.594 2.124,-1.594 l 92.946,-1.062 c 11.154,-0.531 22.839,-9.56 27.087,-20.182 l 5.312,-13.809 c 0,-0.532 0.531,-1.063 0,-1.594 -5.843,-27.087 -30.274,-47.27 -58.955,-47.27 -26.556,0 -49.394,16.996 -57.361,40.897 -5.311,-3.718 -11.684,-5.843 -19.12,-5.311 -12.747,1.062 -22.838,11.684 -24.432,24.431 -0.531,3.187 0,6.374 0.532,9.56 C 16.996,71.1073 0,88.1033 0,109.3483 c 0,2.124 0,3.718 0.531,5.842 0,1.063 1.062,1.594 1.594,1.594 h 170.489 c 1.062,0 2.125,-0.531 2.125,-1.594 z"
         id="path89"
         inkscape:connector-curvature="0"
         style="fill:#f4811f" />
      <path
         d="m 205.5436,49.8628 h -2.656 c -0.531,0 -1.062,0.531 -1.593,1.062 l -3.718,12.747 c -1.593,5.311 -1.062,10.623 1.594,13.809 2.655,3.187 6.373,5.311 11.153,5.843 l 19.652,1.062 c 0.531,0 1.062,0.531 1.593,0.531 0.531,0.531 0.531,1.062 0,1.593 -0.531,1.063 -1.062,1.594 -2.125,1.594 l -20.182,1.062 c -11.154,0.531 -22.838,9.56 -27.087,20.182 l -1.063,4.781 c -0.531,0.531 0,1.593 1.063,1.593 h 70.108 c 1.062,0 1.593,-0.531 1.593,-1.593 1.062,-4.249 2.124,-9.029 2.124,-13.81 0,-27.618 -22.838,-50.456 -50.456,-50.456"
         id="path91"
         inkscape:connector-curvature="0"
         style="fill:#faad3f" />
    </g>
  </g>
</svg>
