<?xml version="1.0" encoding="UTF-8" standalone="no"?>
<svg
   xmlns:dc="http://purl.org/dc/elements/1.1/"
   xmlns:cc="http://creativecommons.org/ns#"
   xmlns:rdf="http://www.w3.org/1999/02/22-rdf-syntax-ns#"
   xmlns:svg="http://www.w3.org/2000/svg"
   xmlns="http://www.w3.org/2000/svg"
   height="176.37495"
   width="176.37495"
   xml:space="preserve"
   viewBox="0 0 176.37495 176.37495"
   y="0px"
   x="0px"
   id="Layer_1"
   version="1.1"><metadata
   id="metadata1204"><rdf:RDF><cc:Work
       rdf:about=""><dc:format>image/svg+xml</dc:format><dc:type
         rdf:resource="http://purl.org/dc/dcmitype/StillImage" /><dc:title></dc:title></cc:Work></rdf:RDF></metadata><defs
   id="defs1202" />
<style
   id="style1171"
   type="text/css">
	.st0{fill:#0080FF;}
	.st1{fill-rule:evenodd;clip-rule:evenodd;fill:#0080FF;}
</style>
<g
   transform="translate(-88.8,-45.125047)"
   id="XMLID_229_">
	<g
   id="XMLID_690_">
		<g
   id="XMLID_691_">
			<g
   id="g1179">
				<g
   id="XMLID_44_">
					<g
   id="XMLID_48_">
						<path
   style="fill:#0080ff"
   d="m 177,221.5 v -34.2 c 36.2,0 64.3,-35.9 50.4,-74 -5.1,-14 -16.4,-25.3 -30.5,-30.4 -38.1,-13.8 -74,14.2 -74,50.4 0,0 0,0 0,0 H 88.8 c 0,-57.7 55.8,-102.7 116.3,-83.8 26.4,8.3 47.5,29.3 55.7,55.7 18.9,60.5 -26.1,116.3 -83.8,116.3 z"
   class="st0"
   id="XMLID_49_" />
					</g>
					<polygon
   style="clip-rule:evenodd;fill:#0080ff;fill-rule:evenodd"
   points="143,153.4 143,153.4 177.1,153.4 177.1,153.4 177.1,187.5 143,187.5 "
   class="st1"
   id="XMLID_47_" />
					<polygon
   style="clip-rule:evenodd;fill:#0080ff;fill-rule:evenodd"
   points="116.9,213.6 116.9,187.5 143,187.5 143,213.6 116.9,213.6 "
   class="st1"
   id="XMLID_46_" />
					<path
   style="clip-rule:evenodd;fill:#0080ff;fill-rule:evenodd"
   d="M 116.9,187.5 H 95 c 0,0 0,0 0,0 v -21.9 c 0,0 0,0 0,0 h 21.9 c 0,0 0,0 0,0 z"
   class="st1"
   id="XMLID_45_" />
				</g>
			</g>
		</g>
	</g>
	
</g>
</svg>