<?xml version="1.0" encoding="UTF-8" standalone="no"?>
<svg
   xmlns:dc="http://purl.org/dc/elements/1.1/"
   xmlns:cc="http://creativecommons.org/ns#"
   xmlns:rdf="http://www.w3.org/1999/02/22-rdf-syntax-ns#"
   xmlns:svg="http://www.w3.org/2000/svg"
   xmlns="http://www.w3.org/2000/svg"
   xml:space="preserve"
   viewBox="0 0 79.522003 79.522003"
   height="79.522003"
   width="79.522003"
   y="0px"
   x="0px"
   id="svg2"
   version="1.1"><metadata
   id="metadata634"><rdf:RDF><cc:Work
       rdf:about=""><dc:format>image/svg+xml</dc:format><dc:type
         rdf:resource="http://purl.org/dc/dcmitype/StillImage" /><dc:title></dc:title></cc:Work></rdf:RDF></metadata><defs
   id="defs632" />
<g
   transform="translate(-0.239,-10.252)"
   id="g627">
	<path
   id="path621"
   d="m 57.537,44.892 c -2.836,0.225 -5.214,1.245 -6.984,3.001 -1.823,1.808 -2.693,4.013 -2.693,6.812 0,4.186 1.718,7.112 5.551,9.43 0.975,0.585 2.303,1.223 4.599,2.213 3.128,1.343 4.291,1.98 5.034,2.776 0.915,0.983 1.17,2.551 0.593,3.751 -0.113,0.233 -0.405,0.623 -0.668,0.885 -0.885,0.893 -2.281,1.365 -4.013,1.365 -2.926,0 -5.109,-1.2 -6.864,-3.796 -0.24,-0.345 -0.458,-0.63 -0.488,-0.63 -0.068,0 -5.776,3.293 -5.896,3.406 -0.075,0.068 -0.015,0.225 0.278,0.705 2.281,3.841 5.844,6.091 10.66,6.737 1.26,0.173 3.623,0.165 4.831,0 3.031,-0.428 5.304,-1.433 7.067,-3.143 1.875,-1.808 2.798,-4.149 2.798,-7.082 0,-1.875 -0.308,-3.338 -1.005,-4.786 -0.48,-0.99 -0.96,-1.658 -1.785,-2.498 -1.583,-1.605 -3.631,-2.821 -7.719,-4.576 -3.091,-1.328 -4.126,-1.898 -4.809,-2.626 -0.653,-0.698 -0.93,-1.515 -0.87,-2.536 0.053,-0.81 0.278,-1.358 0.773,-1.89 0.713,-0.773 1.538,-1.095 2.813,-1.088 1.448,0 2.386,0.375 3.338,1.335 0.338,0.33 0.773,0.863 0.975,1.185 0.233,0.368 0.405,0.57 0.465,0.548 0.195,-0.083 5.649,-3.608 5.649,-3.661 0,-0.03 -0.278,-0.465 -0.615,-0.975 -0.72,-1.08 -2.018,-2.431 -2.911,-3.023 -1.65,-1.095 -3.413,-1.658 -5.739,-1.83 C 58.76,44.81 58.61,44.81 57.537,44.892 Z" />
	<path
   id="path623"
   d="m 34.184,58.523 -0.023,13.263 -0.165,0.623 c -0.218,0.818 -0.473,1.305 -0.923,1.755 -0.63,0.63 -1.44,0.893 -2.791,0.9 -1.928,0.008 -3.083,-0.81 -4.426,-3.106 -0.218,-0.36 -0.413,-0.653 -0.435,-0.645 -0.03,0.015 -1.388,0.833 -3.016,1.815 l -2.963,1.8 0.225,0.45 c 1.343,2.678 3.668,4.704 6.467,5.634 2.956,0.983 6.752,0.893 9.535,-0.225 3.338,-1.35 5.296,-4.141 5.814,-8.29 0.045,-0.42 0.075,-5.109 0.075,-13.931 V 45.268 h -3.676 -3.668 z" />
	<path
   id="path625"
   d="M 71.142,89.774 H 8.858 c -4.752,0 -8.619,-3.866 -8.619,-8.619 V 18.871 c 0,-4.752 3.867,-8.619 8.619,-8.619 h 62.284 c 4.753,0 8.619,3.867 8.619,8.619 v 62.284 c 0,4.753 -3.866,8.619 -8.619,8.619 z M 8.858,14.252 c -2.547,0 -4.619,2.072 -4.619,4.619 v 62.284 c 0,2.547 2.072,4.619 4.619,4.619 h 62.284 c 2.547,0 4.619,-2.072 4.619,-4.619 V 18.871 c 0,-2.547 -2.072,-4.619 -4.619,-4.619 H 8.858 Z" />
</g>
</svg>