<?xml version="1.0" encoding="UTF-8"?><svg xmlns="http://www.w3.org/2000/svg" xmlns:xlink="http://www.w3.org/1999/xlink" viewBox="0 0 50 50" version="1.1"><path d="M24.5 2c-.824 0-1.5.676-1.5 1.5v6c0 .824.676 1.5 1.5 1.5s1.5-.676 1.5-1.5v-6c0-.824-.676-1.5-1.5-1.5zM10.062 7.563c-.386 0-.769.144-1.062.437a1.507 1.507 0 0 0 0 2.121l4.441 4.441a1.5 1.5 0 1 0 2.121-2.121L11.122 8a1.49 1.49 0 0 0-1.06-.438zm28.876 0a1.49 1.49 0 0 0-1.06.437l-4.44 4.441a1.507 1.507 0 0 0 0 2.121c.582.583 1.539.583 2.12 0L40 10.122A1.507 1.507 0 0 0 40 8a1.493 1.493 0 0 0-1.063-.438zM24.5 14c-5.23 0-9.5 4.27-9.5 9.5V27h-2c-1.102 0-2 .898-2 2v17c0 1.102.898 2 2 2h23c1.102 0 2-.898 2-2V29c0-1.102-.898-2-2-2h-2v-3.5c0-5.23-4.27-9.5-9.5-9.5zm0 6c1.898 0 3.5 1.602 3.5 3.5V27h-7v-3.5c0-1.898 1.602-3.5 3.5-3.5zm-20 1c-.824 0-1.5.676-1.5 1.5S3.676 24 4.5 24h6c.824 0 1.5-.676 1.5-1.5s-.676-1.5-1.5-1.5zm34 0c-.824 0-1.5.676-1.5 1.5s.676 1.5 1.5 1.5h6c.824 0 1.5-.676 1.5-1.5s-.676-1.5-1.5-1.5zm-14 13c1.383 0 2.5 1.117 2.5 2.5 0 .816-.395 1.531-1 1.988V40.5c0 .824-.676 1.5-1.5 1.5s-1.5-.676-1.5-1.5v-2.012a2.482 2.482 0 0 1-1-1.988c0-1.383 1.117-2.5 2.5-2.5z" id="surface1"/><metadata><rdf:RDF xmlns:rdf="http://www.w3.org/1999/02/22-rdf-syntax-ns#" xmlns:rdfs="http://www.w3.org/2000/01/rdf-schema#" xmlns:dc="http://purl.org/dc/elements/1.1/"><rdf:Description about="https://iconscout.com/legal#licenses" dc:title="lets,encrypt,filled" dc:description="lets,encrypt,filled" dc:publisher="Iconscout" dc:date="2017-12-09" dc:format="image/svg+xml" dc:language="en"><dc:creator><rdf:Bag><rdf:li>Icons8</rdf:li></rdf:Bag></dc:creator></rdf:Description></rdf:RDF></metadata></svg>