<?xml version="1.0" encoding="UTF-8" standalone="no"?>
<svg
   xmlns:dc="http://purl.org/dc/elements/1.1/"
   xmlns:cc="http://creativecommons.org/ns#"
   xmlns:rdf="http://www.w3.org/1999/02/22-rdf-syntax-ns#"
   xmlns:svg="http://www.w3.org/2000/svg"
   xmlns="http://www.w3.org/2000/svg"
   version="1"
   width="341.33301"
   height="341.33301"
   viewBox="0 0 256 256"
   id="svg3763">
  <metadata
     id="metadata3769">
    <rdf:RDF>
      <cc:Work
         rdf:about="">
        <dc:format>image/svg+xml</dc:format>
        <dc:type
           rdf:resource="http://purl.org/dc/dcmitype/StillImage" />
        <dc:title></dc:title>
      </cc:Work>
    </rdf:RDF>
  </metadata>
  <defs
     id="defs3767" />
  <path
     d="M 0,128 V 256 H 256 V 0 H 0 Z m 157,-4.5 V 135 H 124 V 240 H 97 V 135 H 64 v -23 h 93 z m 65,-10.1 c 4.1,0.8 8.7,1.9 10.3,2.5 l 2.7,1.1 v 12.5 c 0,6.9 -0.2,12.5 -0.4,12.5 -0.2,0 -2.3,-1.1 -4.7,-2.4 -9,-5.1 -23.4,-7 -32.2,-4.4 -2.1,0.6 -5.2,2.5 -6.8,4.1 -2.4,2.3 -2.9,3.7 -2.9,7.4 0,4 0.5,5.1 3.8,8.2 2.1,2 9.9,6.6 17.5,10.4 16,7.9 24.1,14.6 27.8,22.9 3.3,7.4 3.4,23 0.2,30 -3,6.6 -9.6,13.3 -16.1,16.4 -13.8,6.5 -36.3,7.1 -53.9,1.3 L 161,233.8 V 206 l 5,3.6 c 6.5,4.7 14.9,7.6 23.7,8.2 8.8,0.6 15.3,-1 19.3,-4.8 2.5,-2.3 3,-3.6 3,-7.4 0,-7.3 -4.2,-11.1 -21.4,-19.5 -15.2,-7.5 -20,-10.9 -24.5,-17.5 -10,-14.5 -7,-36.7 6.4,-46.8 11.4,-8.7 30.3,-11.9 49.5,-8.4 z"
     id="path3761" />
</svg>
